<svg version="1.1" xmlns="http://www.w3.org/2000/svg" viewBox="0 0 753.3839645385742 555.5" width="1506.7679290771484" height="1111" filter="invert(93%) hue-rotate(180deg)">
  <!-- svg-source:excalidraw -->
  
  <defs>
    <style class="style-fonts">
      @font-face {
        font-family: "Virgil";
        src: url("https://excalidraw.com/Virgil.woff2");
      }
      @font-face {
        font-family: "Cascadia";
        src: url("https://excalidraw.com/Cascadia.woff2");
      }
    </style>
    
  </defs>
  <rect x="0" y="0" width="753.3839645385742" height="555.5" fill="#ffffff"></rect><g transform="translate(127 10) rotate(0 238.42791748046875 22.5)"><text x="0" y="0" font-family="Virgil, Segoe UI Emoji" font-size="36px" fill="#1e1e1e" text-anchor="start" style="white-space: pre;" direction="ltr" dominant-baseline="text-before-edge">State Machine for Abalone</text></g><g stroke-linecap="round" transform="translate(188 95) rotate(0 186 51.5)"><path d="M204.68 -0.55 C223.93 -0.79, 245.23 2.42, 263.6 4.79 C281.97 7.17, 300.19 9.89, 314.91 13.69 C329.63 17.49, 342.87 22.64, 351.93 27.61 C360.99 32.58, 366.44 38.05, 369.26 43.52 C372.07 48.99, 372.41 54.69, 368.82 60.41 C365.23 66.13, 357.55 72.82, 347.71 77.85 C337.88 82.88, 324.91 87.05, 309.82 90.58 C294.73 94.12, 275.95 97.16, 257.17 99.07 C238.4 100.97, 217.1 101.71, 197.16 102.02 C177.22 102.32, 156.83 102.17, 137.51 100.88 C118.19 99.59, 97.9 97.36, 81.23 94.26 C64.56 91.16, 49.6 86.84, 37.51 82.27 C25.43 77.69, 15.05 72.21, 8.71 66.81 C2.36 61.41, -1.09 55.39, -0.57 49.85 C-0.04 44.3, 4.89 38.77, 11.86 33.56 C18.82 28.34, 28.6 22.81, 41.23 18.55 C53.86 14.29, 70.52 10.78, 87.65 8.01 C104.77 5.24, 122.6 3.31, 143.99 1.94 C165.38 0.57, 202.16 -0.25, 215.97 -0.2 C229.78 -0.15, 227.33 1.34, 226.85 2.26 M186.2 -1.07 C205.4 -1.72, 227.8 0.9, 246.78 3.03 C265.75 5.16, 284.06 8.31, 300.05 11.72 C316.04 15.14, 331.44 18.7, 342.71 23.52 C353.97 28.33, 362.93 35.11, 367.63 40.59 C372.34 46.06, 372.91 50.94, 370.93 56.36 C368.95 61.79, 364.08 68.08, 355.76 73.14 C347.44 78.2, 334.69 82.57, 320.99 86.73 C307.29 90.88, 290.95 95.71, 273.56 98.07 C256.16 100.42, 236.29 100.18, 216.63 100.85 C196.97 101.52, 175.38 102.62, 155.61 102.06 C135.83 101.5, 116.05 100.14, 98 97.5 C79.94 94.85, 61.15 90.31, 47.28 86.19 C33.4 82.06, 22.36 78, 14.74 72.76 C7.12 67.53, 3.19 60.25, 1.53 54.8 C-0.13 49.35, 0.04 45.56, 4.8 40.05 C9.56 34.53, 18.56 26.61, 30.09 21.71 C41.62 16.82, 57.67 14, 73.98 10.67 C90.28 7.34, 108.86 3.52, 127.91 1.73 C146.96 -0.07, 178.22 0.21, 188.27 -0.08 C198.32 -0.37, 188.5 -0.71, 188.22 0.01" stroke="#1e1e1e" stroke-width="1" fill="none"></path></g><g transform="translate(244 133) rotate(0 135.56988525390625 12.5)"><text x="0" y="0" font-family="Virgil, Segoe UI Emoji" font-size="20px" fill="#1e1e1e" text-anchor="start" style="white-space: pre;" direction="ltr" dominant-baseline="text-before-edge">no_or_other_cell_selected</text></g><g stroke-linecap="round" transform="translate(180 272.5) rotate(0 186 51.5)"><path d="M172.31 -0.69 C191.04 -1.9, 212.41 -0.8, 231.98 0.7 C251.55 2.2, 272.77 4.92, 289.73 8.3 C306.69 11.68, 321.66 16.37, 333.72 20.99 C345.77 25.61, 355.85 30.92, 362.07 36.02 C368.29 41.13, 371.22 46.04, 371.04 51.62 C370.85 57.19, 367.46 64.18, 360.95 69.46 C354.44 74.75, 344.19 78.97, 331.96 83.31 C319.73 87.66, 304.57 92.47, 287.54 95.53 C270.51 98.59, 249.63 100.44, 229.77 101.68 C209.92 102.92, 188.4 103.46, 168.42 102.98 C148.45 102.5, 128.28 101.12, 109.92 98.8 C91.55 96.48, 72.92 92.77, 58.25 89.05 C43.58 85.32, 31.14 81.49, 21.92 76.47 C12.69 71.45, 6.24 64.41, 2.92 58.94 C-0.4 53.47, -1.51 48.92, 2 43.66 C5.5 38.4, 14.06 32.56, 23.96 27.36 C33.85 22.16, 46.63 16.47, 61.37 12.45 C76.11 8.44, 91.99 5.33, 112.39 3.26 C132.78 1.19, 170.27 0.35, 183.72 0.04 C197.17 -0.26, 193.12 0.63, 193.08 1.42 M182.16 -0.87 C201.2 -2.15, 221.79 -0.87, 240.85 1.08 C259.92 3.02, 280.03 7.15, 296.55 10.8 C313.08 14.44, 328.5 18.52, 340.01 22.95 C351.52 27.37, 360.21 31.92, 365.6 37.36 C370.99 42.79, 373.48 49.88, 372.38 55.58 C371.27 61.28, 366.49 66.44, 358.95 71.53 C351.42 76.62, 340.41 82.23, 327.14 86.12 C313.88 90, 296.91 92.12, 279.35 94.86 C261.79 97.59, 241.43 101.38, 221.76 102.51 C202.1 103.63, 181.19 102.69, 161.35 101.61 C141.52 100.53, 121.13 98.24, 102.77 96.02 C84.41 93.81, 65.29 92.12, 51.19 88.32 C37.09 84.52, 26.59 78.29, 18.17 73.21 C9.75 68.13, 2.84 63.37, 0.67 57.84 C-1.5 52.32, 0.77 45.42, 5.16 40.06 C9.55 34.7, 16.36 30.24, 27.03 25.69 C37.7 21.13, 53.38 16.57, 69.18 12.72 C84.98 8.88, 103.1 4.82, 121.84 2.63 C140.59 0.44, 171.91 0.11, 181.65 -0.4 C191.38 -0.91, 180.09 -1.57, 180.24 -0.45" stroke="#1e1e1e" stroke-width="1" fill="none"></path></g><g transform="translate(276 312.5) rotate(0 89.39991760253906 12.5)"><text x="0" y="0" font-family="Virgil, Segoe UI Emoji" font-size="20px" fill="#1e1e1e" text-anchor="start" style="white-space: pre;" direction="ltr" dominant-baseline="text-before-edge">own_cell_selected</text></g><g stroke-linecap="round" transform="translate(187 442.5) rotate(0 186 51.5)"><path d="M271.29 5.35 C289.86 6.85, 306.78 10.78, 320.59 14.73 C334.41 18.69, 345.66 23.89, 354.2 29.09 C362.74 34.29, 369.66 40.16, 371.84 45.94 C374.02 51.72, 371.78 58.44, 367.29 63.77 C362.8 69.11, 355.46 73.5, 344.91 77.93 C334.37 82.37, 319.68 86.78, 304.01 90.39 C288.35 93.99, 269.77 97.61, 250.91 99.57 C232.06 101.53, 211.06 101.95, 190.88 102.14 C170.71 102.32, 148.99 102.14, 129.87 100.7 C110.76 99.26, 92.48 96.96, 76.19 93.5 C59.91 90.05, 43.55 84.51, 32.16 79.97 C20.77 75.44, 13.05 71.48, 7.86 66.31 C2.66 61.13, 0.14 54.66, 0.99 48.93 C1.83 43.2, 5.59 37, 12.95 31.93 C20.31 26.86, 31.72 22.77, 45.14 18.51 C58.56 14.25, 75.81 9.26, 93.49 6.4 C111.16 3.53, 131.5 2.3, 151.2 1.31 C170.9 0.32, 191.47 -0.41, 211.7 0.46 C231.92 1.32, 262.02 5.45, 272.55 6.5 C283.07 7.55, 276.31 6.24, 274.85 6.77 M182.48 0.47 C201.38 -0.48, 222.89 1.36, 242.14 3.12 C261.4 4.87, 281.71 7.58, 298 11 C314.29 14.42, 328.58 19.03, 339.89 23.63 C351.21 28.23, 360.84 33.32, 365.91 38.59 C370.98 43.87, 371.59 49.6, 370.34 55.27 C369.09 60.94, 366 67.34, 358.4 72.6 C350.8 77.85, 338.36 83.04, 324.76 86.79 C311.17 90.55, 293.99 92.49, 276.82 95.15 C259.65 97.8, 241.32 101.57, 221.75 102.73 C202.18 103.88, 179.35 102.89, 159.39 102.08 C139.43 101.27, 119.9 100.47, 102 97.86 C84.11 95.25, 65.89 90.35, 52 86.41 C38.11 82.47, 27 79.05, 18.68 74.22 C10.36 69.39, 4.53 63.1, 2.11 57.43 C-0.32 51.75, -0.13 45.91, 4.13 40.18 C8.38 34.44, 17.15 27.67, 27.63 23 C38.1 18.34, 51.12 15.67, 67 12.2 C82.87 8.73, 103.86 4.24, 122.86 2.19 C141.85 0.15, 171.15 0.3, 180.97 -0.06 C190.78 -0.42, 181.68 -0.84, 181.76 0.03" stroke="#1e1e1e" stroke-width="1" fill="none"></path></g><g transform="translate(232 482.5) rotate(0 143.44989013671875 12.5)"><text x="0" y="0" font-family="Virgil, Segoe UI Emoji" font-size="20px" fill="#1e1e1e" text-anchor="start" style="white-space: pre;" direction="ltr" dominant-baseline="text-before-edge">own_span_of_cells_selected</text></g><g stroke-linecap="round" transform="translate(29 38) rotate(0 10 8.5)"><path d="M11.6 0.91 C13.45 1.05, 16.18 1.18, 17.54 2.35 C18.9 3.53, 19.85 6.06, 19.75 7.96 C19.66 9.86, 18.34 12.13, 16.98 13.76 C15.61 15.39, 13.51 17.25, 11.56 17.74 C9.62 18.22, 7.15 17.9, 5.29 16.65 C3.43 15.4, 1.2 12.26, 0.4 10.24 C-0.39 8.23, -0.43 6.17, 0.52 4.58 C1.47 2.98, 3.97 1.28, 6.11 0.67 C8.24 0.07, 12.3 0.95, 13.34 0.96 C14.38 0.97, 12.46 0.8, 12.33 0.72 M6.66 1.81 C8.6 1.48, 12.8 1.72, 14.6 1.94 C16.4 2.15, 16.79 1.89, 17.47 3.1 C18.16 4.32, 18.92 7.19, 18.69 9.23 C18.47 11.28, 17.44 13.83, 16.1 15.36 C14.75 16.9, 12.47 18.33, 10.63 18.43 C8.78 18.53, 6.98 17.36, 5.01 15.96 C3.03 14.56, -0.61 11.95, -1.22 10.02 C-1.83 8.1, 0.03 5.9, 1.33 4.39 C2.64 2.87, 5.66 1.31, 6.61 0.94 C7.55 0.56, 6.91 2.09, 7.01 2.13" stroke="none" stroke-width="0" fill="#1e1e1e"></path><path d="M6.6 0.18 C8.33 -0.49, 10.76 -0.24, 12.61 0.22 C14.46 0.68, 16.58 1.26, 17.69 2.94 C18.81 4.62, 19.31 8.18, 19.3 10.28 C19.29 12.38, 19.12 14.54, 17.63 15.53 C16.14 16.51, 12.57 16.31, 10.36 16.18 C8.16 16.04, 5.98 15.62, 4.37 14.71 C2.77 13.8, 1.18 12.47, 0.72 10.71 C0.27 8.96, 0.62 6, 1.62 4.18 C2.62 2.36, 5.9 0.37, 6.72 -0.21 C7.55 -0.79, 6.6 0.38, 6.59 0.68 M6.84 -0.76 C8.91 -1.04, 12.16 -0.15, 14.18 0.91 C16.2 1.97, 18.31 4.09, 18.96 5.59 C19.61 7.09, 18.62 8.16, 18.08 9.91 C17.55 11.66, 17.44 15.11, 15.76 16.09 C14.07 17.08, 10.27 16.38, 7.97 15.82 C5.67 15.27, 3.42 14.01, 1.96 12.77 C0.49 11.53, -0.9 10.2, -0.82 8.39 C-0.73 6.57, 0.85 3.01, 2.47 1.85 C4.09 0.69, 7.81 1.9, 8.91 1.44 C10.01 0.99, 9.34 -0.61, 9.07 -0.88" stroke="#1e1e1e" stroke-width="1" fill="none"></path></g><g stroke-linecap="round"><g transform="translate(52 51) rotate(0 80.97887742287014 31.039974324717193)"><path d="M-0.39 -0.16 C14.82 2.75, 63.88 7.46, 90.6 18.05 C117.33 28.64, 148.41 55.83, 159.98 63.37 M1.61 -1.29 C16.68 1.78, 62.66 9.2, 89.45 19.62 C116.24 30.04, 150.62 53.73, 162.34 61.23" stroke="#1e1e1e" stroke-width="1" fill="none"></path></g><g transform="translate(52 51) rotate(0 80.97887742287014 31.039974324717193)"><path d="M132.85 53.78 C140.48 54.52, 148.25 56.32, 162.89 61.11 M133.74 55.3 C142.99 57.65, 151.91 59.24, 163 61.59" stroke="#1e1e1e" stroke-width="1" fill="none"></path></g><g transform="translate(52 51) rotate(0 80.97887742287014 31.039974324717193)"><path d="M144.05 36.59 C148.98 41.55, 153.98 47.6, 162.89 61.11 M144.94 38.1 C150.59 45.94, 155.9 53.08, 163 61.59" stroke="#1e1e1e" stroke-width="1" fill="none"></path></g></g><mask></mask><g stroke-linecap="round"><g transform="translate(305 195) rotate(0 -19.80377901818781 38.987301695747306)"><path d="M0.26 -0.36 C-6.39 6.57, -39.39 27.35, -39.87 40.5 C-40.35 53.64, -8.68 72.15, -2.62 78.51 M-1.06 -1.6 C-7.34 5.07, -37.25 25.11, -37.61 38.64 C-37.96 52.16, -8.87 72.74, -3.18 79.57" stroke="#1e1e1e" stroke-width="1" fill="none"></path></g><g transform="translate(305 195) rotate(0 -19.80377901818781 38.987301695747306)"><path d="M-28.24 67.81 C-19.46 72.97, -13.66 74.69, -3.73 81.51 M-28.42 68.33 C-21.64 71.24, -16.51 74.36, -2.69 79.01" stroke="#1e1e1e" stroke-width="1" fill="none"></path></g><g transform="translate(305 195) rotate(0 -19.80377901818781 38.987301695747306)"><path d="M-15.88 54.51 C-10.99 63.75, -8.95 69.52, -3.73 81.51 M-16.07 55.03 C-11.85 60.63, -9.29 66.53, -2.69 79.01" stroke="#1e1e1e" stroke-width="1" fill="none"></path></g></g><mask></mask><g transform="translate(197 214.5) rotate(0 33.639984130859375 20)"><text x="0" y="0" font-family="Virgil, Segoe UI Emoji" font-size="16px" fill="#1e1e1e" text-anchor="start" style="white-space: pre;" direction="ltr" dominant-baseline="text-before-edge">own cell </text><text x="0" y="20" font-family="Virgil, Segoe UI Emoji" font-size="16px" fill="#1e1e1e" text-anchor="start" style="white-space: pre;" direction="ltr" dominant-baseline="text-before-edge">selected</text></g><g stroke-linecap="round"><g transform="translate(400 274) rotate(0 23.79800874758274 -39.11129435449837)"><path d="M0.65 1.07 C8.37 -6.25, 45 -30.74, 45.9 -44.13 C46.81 -57.53, 12.73 -73.45, 6.1 -79.29 M-0.47 0.59 C7.65 -6.52, 46.98 -29.54, 48.04 -42.66 C49.1 -55.78, 13.37 -72.21, 5.91 -78.13" stroke="#1e1e1e" stroke-width="1" fill="none"></path></g><g transform="translate(400 274) rotate(0 23.79800874758274 -39.11129435449837)"><path d="M34.46 -74.39 C25.39 -72.06, 18.05 -73.5, 5.6 -76.29 M32.84 -73.26 C23.9 -74.76, 15.41 -75.87, 5.84 -78.84" stroke="#1e1e1e" stroke-width="1" fill="none"></path></g><g transform="translate(400 274) rotate(0 23.79800874758274 -39.11129435449837)"><path d="M24.62 -58.49 C18.18 -60.41, 13.43 -66.05, 5.6 -76.29 M23 -57.36 C17.45 -64.19, 12.22 -70.57, 5.84 -78.84" stroke="#1e1e1e" stroke-width="1" fill="none"></path></g></g><mask></mask><g transform="translate(457 210) rotate(0 57.38396453857422 20)"><text x="0" y="0" font-family="Virgil, Segoe UI Emoji" font-size="16px" fill="#1e1e1e" text-anchor="start" style="white-space: pre;" direction="ltr" dominant-baseline="text-before-edge">deselected ||</text><text x="0" y="20" font-family="Virgil, Segoe UI Emoji" font-size="16px" fill="#1e1e1e" text-anchor="start" style="white-space: pre;" direction="ltr" dominant-baseline="text-before-edge">other selected</text></g><g stroke-linecap="round"><g transform="translate(540 468) rotate(0 40.52332465285133 -159.57337430772372)"><path d="M-1.09 -1.07 C12.55 -34.34, 78.13 -147.41, 81.94 -200.27 C85.75 -253.12, 31.85 -298.59, 21.77 -318.2 M0.55 0.98 C14 -32.05, 77.57 -145.35, 80.96 -198.87 C84.35 -252.39, 30.8 -299.95, 20.88 -320.13" stroke="#1e1e1e" stroke-width="1" fill="none"></path></g><g transform="translate(540 468) rotate(0 40.52332465285133 -159.57337430772372)"><path d="M43.9 -303.35 C37.59 -309.12, 31.63 -314.89, 22.67 -321.19 M45.25 -303.63 C38.23 -308.09, 30.97 -313.52, 21.74 -319.62" stroke="#1e1e1e" stroke-width="1" fill="none"></path></g><g transform="translate(540 468) rotate(0 40.52332465285133 -159.57337430772372)"><path d="M27.25 -291.36 C26.2 -300.72, 25.43 -310.23, 22.67 -321.19 M28.6 -291.63 C26.29 -299.52, 23.84 -308.41, 21.74 -319.62" stroke="#1e1e1e" stroke-width="1" fill="none"></path></g></g><mask></mask><g transform="translate(628.6160354614258 254) rotate(0 57.38396453857422 20)"><text x="0" y="0" font-family="Virgil, Segoe UI Emoji" font-size="16px" fill="#1e1e1e" text-anchor="start" style="white-space: pre;" direction="ltr" dominant-baseline="text-before-edge">deselected ||</text><text x="0" y="20" font-family="Virgil, Segoe UI Emoji" font-size="16px" fill="#1e1e1e" text-anchor="start" style="white-space: pre;" direction="ltr" dominant-baseline="text-before-edge">other selected</text></g><g stroke-linecap="round"><g transform="translate(310.7759552001953 374.9718590783493) rotate(0 -13.554865836689373 33.990658549411364)"><path d="M0.33 -0.86 C-4.17 4.27, -27.79 18.69, -27.74 30.17 C-27.69 41.66, -4.18 61.38, 0.63 68.04 M-0.96 1.3 C-5.03 6.62, -25.61 20, -25.53 31.26 C-25.44 42.52, -4.92 62.69, -0.45 68.85" stroke="#1e1e1e" stroke-width="1" fill="none"></path></g><g transform="translate(310.7759552001953 374.9718590783493) rotate(0 -13.554865836689373 33.990658549411364)"><path d="M-22.38 55.53 C-17.51 58.89, -12.8 62.48, 1.44 69.02 M-21.33 56.88 C-16.21 59.82, -11.84 62.17, -0.38 69.39" stroke="#1e1e1e" stroke-width="1" fill="none"></path></g><g transform="translate(310.7759552001953 374.9718590783493) rotate(0 -13.554865836689373 33.990658549411364)"><path d="M-10.06 45.1 C-8.2 51, -6.45 57.1, 1.44 69.02 M-9.01 46.45 C-6.62 51.71, -5.01 56.41, -0.38 69.39" stroke="#1e1e1e" stroke-width="1" fill="none"></path></g></g><mask></mask><g transform="translate(188 386) rotate(0 46.887977600097656 20)"><text x="0" y="0" font-family="Virgil, Segoe UI Emoji" font-size="16px" fill="#1e1e1e" text-anchor="start" style="white-space: pre;" direction="ltr" dominant-baseline="text-before-edge">own cell &amp;&amp;</text><text x="0" y="20" font-family="Virgil, Segoe UI Emoji" font-size="16px" fill="#1e1e1e" text-anchor="start" style="white-space: pre;" direction="ltr" dominant-baseline="text-before-edge">can be span</text></g><g stroke-linecap="round"><g transform="translate(401 441) rotate(0 10.994374930053766 -31.857143284068457)"><path d="M-0.36 -1.03 C3.31 -6.4, 21.89 -20.58, 22.34 -31.2 C22.79 -41.82, 5.71 -59.35, 2.33 -64.75 M1.65 1.04 C5.16 -4.75, 21.65 -22.09, 21.57 -32.91 C21.5 -43.72, 4.51 -58.92, 1.21 -63.83" stroke="#1e1e1e" stroke-width="1" fill="none"></path></g><g transform="translate(401 441) rotate(0 10.994374930053766 -31.857143284068457)"><path d="M15.83 -54.18 C13.29 -58.78, 5.58 -62.18, 1.75 -64 M17.77 -54.54 C13.45 -56.96, 8.42 -59.23, 0.39 -63.38" stroke="#1e1e1e" stroke-width="1" fill="none"></path></g><g transform="translate(401 441) rotate(0 10.994374930053766 -31.857143284068457)"><path d="M6.17 -45.89 C6.72 -53.17, 2.17 -59.29, 1.75 -64 M8.11 -46.26 C6.57 -51.08, 4.31 -55.72, 0.39 -63.38" stroke="#1e1e1e" stroke-width="1" fill="none"></path></g></g><mask></mask><g transform="translate(429 398) rotate(0 49.70397186279297 10)"><text x="0" y="0" font-family="Virgil, Segoe UI Emoji" font-size="16px" fill="#1e1e1e" text-anchor="start" style="white-space: pre;" direction="ltr" dominant-baseline="text-before-edge">own selected</text></g><g stroke-linecap="round"><g transform="translate(180 325) rotate(0 -44.398139515770595 -48.656585776605624)"><path d="M-0.68 -0.73 C-10.79 -4.5, -45.01 -6.77, -59.86 -23.12 C-74.72 -39.46, -84.53 -86.33, -89.81 -98.82 M1.16 1.5 C-9.16 -2.04, -45.55 -5.07, -60.74 -21.64 C-75.93 -38.21, -84.81 -85.37, -89.96 -97.93" stroke="#1e1e1e" stroke-width="1" fill="none"></path></g></g><mask></mask><g stroke-linecap="round"><g transform="translate(188 490) rotate(0 -53.57312192230734 -122.27220252928322)"><path d="M0.5 -0.52 C-15.61 -21.9, -80.42 -87.78, -97.75 -128.42 C-115.09 -169.06, -102.39 -224.86, -103.49 -244.36 M-0.7 1.82 C-16.85 -19.37, -81.36 -85.73, -98.57 -127.1 C-115.79 -168.46, -103.03 -226.8, -103.99 -246.36" stroke="#1e1e1e" stroke-width="1" fill="none"></path></g></g><mask></mask><g stroke-linecap="round"><g transform="translate(84 247) rotate(0 51.985879908502056 -48.35023701627739)"><path d="M-0.62 -0.59 C3.97 -12.73, 10.56 -57.38, 28.1 -73.35 C45.63 -89.32, 91.96 -92.37, 104.59 -96.39 M1.25 1.72 C6.17 -10.21, 13.19 -55.3, 30.33 -71.99 C47.48 -88.68, 91.85 -94.31, 104.14 -98.42" stroke="#1e1e1e" stroke-width="1" fill="none"></path></g><g transform="translate(84 247) rotate(0 51.985879908502056 -48.35023701627739)"><path d="M78.15 -83.35 C87.22 -86.42, 97.41 -93.29, 103.35 -97.45 M79.92 -81.07 C85.37 -85.63, 92.41 -91.58, 103.64 -97.77" stroke="#1e1e1e" stroke-width="1" fill="none"></path></g><g transform="translate(84 247) rotate(0 51.985879908502056 -48.35023701627739)"><path d="M73.35 -103.3 C83.99 -99.49, 95.82 -99.5, 103.35 -97.45 M75.12 -101.02 C81.86 -100.13, 90.21 -100.63, 103.64 -97.77" stroke="#1e1e1e" stroke-width="1" fill="none"></path></g></g><mask></mask><g transform="translate(10 133) rotate(0 62.439971923828125 20)"><text x="0" y="0" font-family="Virgil, Segoe UI Emoji" font-size="16px" fill="#1e1e1e" text-anchor="start" style="white-space: pre;" direction="ltr" dominant-baseline="text-before-edge">check if won &amp;&amp;</text><text x="0" y="20" font-family="Virgil, Segoe UI Emoji" font-size="16px" fill="#1e1e1e" text-anchor="start" style="white-space: pre;" direction="ltr" dominant-baseline="text-before-edge">change player</text></g><g transform="translate(114 266) rotate(0 46.991973876953125 20)"><text x="0" y="0" font-family="Virgil, Segoe UI Emoji" font-size="16px" fill="#1e1e1e" text-anchor="start" style="white-space: pre;" direction="ltr" dominant-baseline="text-before-edge">make single </text><text x="0" y="20" font-family="Virgil, Segoe UI Emoji" font-size="16px" fill="#1e1e1e" text-anchor="start" style="white-space: pre;" direction="ltr" dominant-baseline="text-before-edge">    move</text></g><g transform="translate(46 400) rotate(0 39.415977478027344 20)"><text x="0" y="0" font-family="Virgil, Segoe UI Emoji" font-size="16px" fill="#1e1e1e" text-anchor="start" style="white-space: pre;" direction="ltr" dominant-baseline="text-before-edge">make </text><text x="0" y="20" font-family="Virgil, Segoe UI Emoji" font-size="16px" fill="#1e1e1e" text-anchor="start" style="white-space: pre;" direction="ltr" dominant-baseline="text-before-edge">span move</text></g></svg>