<svg version="1.1" xmlns="http://www.w3.org/2000/svg" viewBox="0 0 643 474" width="1286" height="948" filter="invert(93%) hue-rotate(180deg)">
  <!-- svg-source:excalidraw -->
  
  <defs>
    <style class="style-fonts">
      @font-face {
        font-family: "Virgil";
        src: url("https://excalidraw.com/Virgil.woff2");
      }
      @font-face {
        font-family: "Cascadia";
        src: url("https://excalidraw.com/Cascadia.woff2");
      }
    </style>
    
  </defs>
  <rect x="0" y="0" width="643" height="474" fill="#ffffff"></rect><g stroke-linecap="round" transform="translate(43 84) rotate(0 65 26)"><path d="M64.09 0.41 C74.35 0.12, 86.84 1.77, 96.14 3.72 C105.44 5.67, 114.37 8.48, 119.89 12.1 C125.42 15.73, 129.09 21.21, 129.27 25.47 C129.45 29.74, 126.05 33.96, 120.96 37.7 C115.86 41.45, 107.8 45.57, 98.7 47.94 C89.59 50.3, 77.15 51.73, 66.32 51.9 C55.48 52.07, 43.07 51.15, 33.69 48.97 C24.31 46.79, 15.79 42.72, 10.03 38.81 C4.28 34.91, -0.4 29.78, -0.83 25.54 C-1.26 21.3, 2.2 16.94, 7.45 13.38 C12.7 9.82, 19.85 6.25, 30.68 4.16 C41.52 2.08, 64.23 1.48, 72.47 0.87 C80.71 0.27, 80.46 0.32, 80.14 0.55 M49.79 -0.62 C59.71 -2.06, 74.07 -0.58, 84.42 0.96 C94.77 2.51, 104.65 5.3, 111.91 8.65 C119.18 12, 125.45 16.98, 128.02 21.04 C130.58 25.11, 130.66 29.03, 127.29 33.06 C123.93 37.09, 116.1 42.05, 107.83 45.22 C99.56 48.39, 88.13 51.03, 77.67 52.07 C67.21 53.1, 55.2 52.73, 45.08 51.42 C34.97 50.12, 24.48 47.65, 16.99 44.25 C9.49 40.86, 2.52 35.63, 0.1 31.07 C-2.33 26.5, -1.01 20.92, 2.45 16.85 C5.91 12.77, 12.83 9.27, 20.85 6.62 C28.86 3.97, 45.56 1.97, 50.54 0.93 C55.52 -0.11, 50.26 0.07, 50.74 0.37" stroke="#1e1e1e" stroke-width="1" fill="none"></path></g><g transform="translate(77 98) rotate(0 27.049972534179688 12.5)"><text x="0" y="0" font-family="Virgil, Segoe UI Emoji" font-size="20px" fill="#1e1e1e" text-anchor="start" style="white-space: pre;" direction="ltr" dominant-baseline="text-before-edge">Client</text></g><g stroke-linecap="round" transform="translate(316 85) rotate(0 65 26)"><path d="M75.08 0.6 C85.34 0.55, 97.26 1.95, 105.6 4.76 C113.93 7.56, 121.23 13.16, 125.08 17.44 C128.93 21.71, 130.42 26.09, 128.7 30.39 C126.98 34.68, 121.32 39.95, 114.77 43.21 C108.22 46.46, 99.21 48.53, 89.4 49.9 C79.58 51.27, 66.59 52.1, 55.87 51.42 C45.15 50.75, 33.81 48.4, 25.08 45.84 C16.36 43.29, 7.47 40.2, 3.52 36.09 C-0.42 31.98, -0.27 25.69, 1.42 21.19 C3.12 16.69, 6.93 12.39, 13.71 9.09 C20.5 5.78, 30.94 2.8, 42.13 1.35 C53.33 -0.1, 73.45 0.24, 80.88 0.39 C88.31 0.55, 86.75 1.92, 86.69 2.28 M64.82 -0.01 C75.05 -0.04, 88.16 2.35, 97.36 4.3 C106.56 6.25, 114.73 8.36, 120.03 11.69 C125.33 15.02, 128.69 19.73, 129.17 24.28 C129.64 28.84, 128.05 34.87, 122.89 39.01 C117.73 43.15, 107.88 47.01, 98.2 49.12 C88.52 51.23, 75.52 51.72, 64.79 51.65 C54.06 51.58, 43.12 50.77, 33.82 48.71 C24.52 46.65, 14.85 43.14, 9.01 39.29 C3.16 35.43, -1.06 29.97, -1.26 25.56 C-1.47 21.15, 2.06 16.57, 7.78 12.81 C13.5 9.06, 23.73 5.07, 33.05 3.03 C42.36 1, 58.42 1.05, 63.67 0.57 C68.92 0.1, 64.58 -0.27, 64.53 0.16" stroke="#1e1e1e" stroke-width="1" fill="none"></path></g><g transform="translate(350 99) rotate(0 27.049972534179688 12.5)"><text x="0" y="0" font-family="Virgil, Segoe UI Emoji" font-size="20px" fill="#1e1e1e" text-anchor="start" style="white-space: pre;" direction="ltr" dominant-baseline="text-before-edge">Client</text></g><g stroke-linecap="round" transform="translate(503 86) rotate(0 65 26)"><path d="M48.15 0.08 C57.84 -1.13, 71.95 0.4, 82.3 1.78 C92.66 3.16, 102.79 5.32, 110.31 8.35 C117.83 11.38, 124.54 16.06, 127.4 19.95 C130.27 23.85, 130.06 27.55, 127.49 31.7 C124.91 35.86, 119.65 41.8, 111.97 44.91 C104.29 48.03, 92.09 49.27, 81.42 50.41 C70.76 51.55, 58.4 52.8, 47.99 51.75 C37.57 50.7, 26.63 47.3, 18.94 44.11 C11.26 40.93, 4.66 36.6, 1.89 32.64 C-0.88 28.68, -0.37 24.51, 2.3 20.36 C4.97 16.2, 9.95 11.14, 17.9 7.72 C25.84 4.29, 44.32 0.92, 49.96 -0.18 C55.6 -1.28, 51.52 0.41, 51.74 1.1 M43.85 2.49 C53.59 1.05, 68.21 0.15, 79.15 0.72 C90.1 1.29, 101.62 2.88, 109.53 5.91 C117.44 8.93, 123.42 14.59, 126.59 18.86 C129.77 23.12, 130.81 27.62, 128.56 31.52 C126.31 35.42, 120.51 39.14, 113.09 42.25 C105.66 45.36, 94.4 48.47, 83.99 50.18 C73.59 51.89, 61.23 53.46, 50.67 52.52 C40.11 51.58, 28.46 47.63, 20.62 44.55 C12.78 41.48, 6.88 38.26, 3.63 34.07 C0.39 29.87, -1.18 23.57, 1.15 19.38 C3.47 15.2, 10.15 11.88, 17.57 8.97 C25 6.06, 40.77 2.97, 45.7 1.91 C50.63 0.85, 46.84 2.08, 47.16 2.59" stroke="#1e1e1e" stroke-width="1" fill="none"></path></g><g transform="translate(537 100) rotate(0 27.049972534179688 12.5)"><text x="0" y="0" font-family="Virgil, Segoe UI Emoji" font-size="20px" fill="#1e1e1e" text-anchor="start" style="white-space: pre;" direction="ltr" dominant-baseline="text-before-edge">Client</text></g><g stroke-linecap="round" transform="translate(138 240) rotate(0 65 26)"><path d="M45.86 0.91 C55.31 -0.65, 68.56 -0.7, 79 0.42 C89.45 1.54, 100.46 4.51, 108.53 7.62 C116.6 10.72, 124.21 15.05, 127.43 19.04 C130.65 23.03, 130.08 27.48, 127.84 31.55 C125.6 35.61, 121.31 40.39, 113.99 43.45 C106.68 46.52, 94.26 48.47, 83.94 49.92 C73.61 51.37, 62.6 53.09, 52.05 52.17 C41.5 51.24, 28.79 47.38, 20.64 44.35 C12.5 41.33, 6.32 38.08, 3.16 34.03 C-0.01 29.98, -0.67 24.36, 1.65 20.04 C3.98 15.72, 8.76 11.2, 17.13 8.11 C25.49 5.02, 44.98 2.83, 51.84 1.51 C58.7 0.18, 57.9 -0.18, 58.28 0.16 M35.39 3.59 C44.34 1.45, 57.39 0.48, 67.93 0.51 C78.46 0.54, 89.62 1.75, 98.61 3.75 C107.6 5.74, 116.44 8.65, 121.86 12.5 C127.27 16.36, 131.25 22.46, 131.12 26.87 C130.98 31.28, 127.14 35.38, 121.05 38.95 C114.97 42.52, 104.31 45.92, 94.63 48.28 C84.94 50.65, 73.88 53.24, 62.94 53.15 C52.01 53.05, 38.34 50.46, 29.02 47.71 C19.69 44.96, 11.93 40.38, 7 36.63 C2.06 32.88, -1.27 29.3, -0.59 25.22 C0.1 21.15, 5.29 15.87, 11.1 12.19 C16.91 8.5, 30.2 4.58, 34.26 3.09 C38.33 1.61, 34.63 3.14, 35.48 3.28" stroke="#1e1e1e" stroke-width="1" fill="none"></path></g><g transform="translate(172 254) rotate(0 30.84996795654297 12.5)"><text x="0" y="0" font-family="Virgil, Segoe UI Emoji" font-size="20px" fill="#1e1e1e" text-anchor="start" style="white-space: pre;" direction="ltr" dominant-baseline="text-before-edge">Server</text></g><g stroke-linecap="round"><g transform="translate(75 135) rotate(0 30.594077182173464 59.0768928859282)"><path d="M-0.11 0.59 C0.4 11.9, -6.51 47.47, 4.17 66.94 C14.86 86.41, 53.91 108.83, 64 117.42 M-1.63 -0.15 C-1.28 10.92, -6.95 45.57, 3.84 65.31 C14.62 85.05, 52.87 109.24, 63.08 118.3" stroke="#1e1e1e" stroke-width="1" fill="none"></path></g><g transform="translate(75 135) rotate(0 30.594077182173464 59.0768928859282)"><path d="M35.45 111.23 C47.24 112.39, 55.58 117.06, 63.45 117.27 M33.77 108.56 C42.03 111.27, 51.87 114.86, 62.51 117.76" stroke="#1e1e1e" stroke-width="1" fill="none"></path></g><g transform="translate(75 135) rotate(0 30.594077182173464 59.0768928859282)"><path d="M47.95 94.95 C54.69 102.52, 58.1 113.6, 63.45 117.27 M46.26 92.28 C50.65 99.83, 56.72 108.33, 62.51 117.76" stroke="#1e1e1e" stroke-width="1" fill="none"></path></g></g><mask></mask><g stroke-linecap="round"><g transform="translate(195 239) rotate(0 -22.618058839566118 -54.31872307022104)"><path d="M-0.17 -1.06 C-1.57 -10.56, -2.04 -38.52, -9.38 -56.33 C-16.72 -74.13, -38.26 -99.28, -44.2 -107.88 M-1.71 1 C-3.14 -8.9, -2.78 -39.65, -10.01 -58.09 C-17.23 -76.53, -39.19 -101, -45.07 -109.64" stroke="#1e1e1e" stroke-width="1" fill="none"></path></g><g transform="translate(195 239) rotate(0 -22.618058839566118 -54.31872307022104)"><path d="M-21.52 -92.5 C-24.29 -97.44, -29.11 -102.31, -43.28 -107.81 M-18.99 -92.78 C-25.66 -98.14, -32.15 -101.94, -44.35 -110.11" stroke="#1e1e1e" stroke-width="1" fill="none"></path></g><g transform="translate(195 239) rotate(0 -22.618058839566118 -54.31872307022104)"><path d="M-37.8 -80 C-37.06 -87.66, -38.31 -95.29, -43.28 -107.81 M-35.27 -80.27 C-38.16 -88.51, -40.76 -95.29, -44.35 -110.11" stroke="#1e1e1e" stroke-width="1" fill="none"></path></g></g><mask></mask><g stroke-linecap="round"><g transform="translate(263.76738454368933 252.20635242092078) rotate(0 46.64481480835457 -59.197907915025155)"><path d="M0.26 -1.03 C10.49 -10.22, 45.9 -35.66, 61.2 -55.07 C76.5 -74.47, 86.79 -107.06, 92.06 -117.48 M-1.06 1.04 C9.54 -7.93, 47.47 -33.37, 63.37 -53.45 C79.27 -73.54, 89.43 -108.38, 94.35 -119.44" stroke="#1e1e1e" stroke-width="1" fill="none"></path></g><g transform="translate(263.76738454368933 252.20635242092078) rotate(0 46.64481480835457 -59.197907915025155)"><path d="M92.16 -91.16 C94.23 -100.04, 95.34 -107.44, 95.41 -119.82 M94.52 -88.87 C94.35 -99.3, 93.73 -111.04, 94.86 -118.99" stroke="#1e1e1e" stroke-width="1" fill="none"></path></g><g transform="translate(263.76738454368933 252.20635242092078) rotate(0 46.64481480835457 -59.197907915025155)"><path d="M72.99 -98.48 C80.59 -105.29, 87.23 -110.58, 95.41 -119.82 M75.35 -96.19 C81.95 -104.09, 88.04 -113.27, 94.86 -118.99" stroke="#1e1e1e" stroke-width="1" fill="none"></path></g></g><mask></mask><g stroke-linecap="round"><g transform="translate(261.85433602617354 253.7807953617055) rotate(0 131.30093619698545 -58.63865580504219)"><path d="M0.24 -0.86 C25.46 -7.34, 107.34 -20.56, 151.25 -39.88 C195.16 -59.2, 244.85 -103.66, 263.7 -116.77 M-1.1 1.31 C23.98 -4.97, 106.3 -18.94, 150.35 -38.92 C194.41 -58.9, 244.69 -105.43, 263.23 -118.59" stroke="#1e1e1e" stroke-width="1" fill="none"></path></g><g transform="translate(261.85433602617354 253.7807953617055) rotate(0 131.30093619698545 -58.63865580504219)"><path d="M246.1 -92.85 C250.53 -99.65, 258.66 -106.12, 261.94 -117.58 M247.47 -93.75 C252.51 -99.68, 254.98 -106.27, 262.8 -119.37" stroke="#1e1e1e" stroke-width="1" fill="none"></path></g><g transform="translate(261.85433602617354 253.7807953617055) rotate(0 131.30093619698545 -58.63865580504219)"><path d="M233.34 -108.93 C241.39 -111.02, 253.28 -112.76, 261.94 -117.58 M234.71 -109.82 C242.94 -111.64, 248.68 -114.1, 262.8 -119.37" stroke="#1e1e1e" stroke-width="1" fill="none"></path></g></g><mask></mask><g stroke-linecap="round"><g transform="translate(151.08710697616038 282.9189004015059) rotate(0 -14.097278806813847 36.33152477092702)"><path d="M1.12 -0.19 C-3.59 4.16, -24.13 14.49, -28.14 26.71 C-32.15 38.94, -24.12 65.16, -22.94 73.16 M0.24 -1.33 C-4.54 3.14, -25.14 15.5, -28.6 28.06 C-32.05 40.61, -21.88 66.58, -20.5 74" stroke="#1e1e1e" stroke-width="1" fill="none"></path></g><g transform="translate(151.08710697616038 282.9189004015059) rotate(0 -14.097278806813847 36.33152477092702)"><path d="M-34.63 56.24 C-30.6 59.03, -27.29 68.06, -19.39 74.54 M-34.7 54.55 C-31.7 59.53, -29.34 61.75, -21.14 74.17" stroke="#1e1e1e" stroke-width="1" fill="none"></path></g><g transform="translate(151.08710697616038 282.9189004015059) rotate(0 -14.097278806813847 36.33152477092702)"><path d="M-18.98 51.88 C-19.71 56.15, -21.2 66.52, -19.39 74.54 M-19.04 50.19 C-19.24 56.03, -20.07 59.14, -21.14 74.17" stroke="#1e1e1e" stroke-width="1" fill="none"></path></g></g><mask></mask><g stroke-linecap="round"><g transform="translate(130 362) rotate(0 52.81344624911435 16.29680107687352)"><path d="M-0.22 -0.72 C7.14 4.69, 27.1 26.89, 44.64 31.33 C62.18 35.78, 94.78 26.87, 105.04 25.93 M-1.8 1.51 C5.42 7.16, 25.82 28.76, 44.03 32.52 C62.23 36.28, 97.02 25.58, 107.42 24.08" stroke="#1e1e1e" stroke-width="1" fill="none"></path></g><g transform="translate(130 362) rotate(0 52.81344624911435 16.29680107687352)"><path d="M80.82 41.11 C89.7 33.05, 101.01 29.48, 108.61 23.46 M82.73 39.7 C88.44 35.22, 94.37 32.78, 108.2 24.85" stroke="#1e1e1e" stroke-width="1" fill="none"></path></g><g transform="translate(130 362) rotate(0 52.81344624911435 16.29680107687352)"><path d="M76.5 21.04 C86.67 19.82, 99.44 23.08, 108.61 23.46 M78.41 19.64 C85.27 19.88, 92.23 22.17, 108.2 24.85" stroke="#1e1e1e" stroke-width="1" fill="none"></path></g></g><mask></mask><g stroke-linecap="round"><g transform="translate(241 387) rotate(0 8.88388856503991 -49.08591827331577)"><path d="M1.07 -1.08 C3.89 -8.33, 17.51 -26.8, 17.59 -43.14 C17.68 -59.49, 4.05 -89.93, 1.6 -99.14 M0.17 0.97 C2.83 -6.65, 16.88 -28.25, 16.96 -44.81 C17.03 -61.38, 2.85 -89.64, 0.62 -98.42" stroke="#1e1e1e" stroke-width="1" fill="none"></path></g><g transform="translate(241 387) rotate(0 8.88388856503991 -49.08591827331577)"><path d="M16.9 -76.02 C13.63 -85.13, 3.88 -90.64, -0.03 -99.2 M19.35 -77.03 C12.51 -83.66, 8.09 -90.03, -0.09 -97.43" stroke="#1e1e1e" stroke-width="1" fill="none"></path></g><g transform="translate(241 387) rotate(0 8.88388856503991 -49.08591827331577)"><path d="M-1.09 -69.41 C2.02 -81.03, -1.34 -88.89, -0.03 -99.2 M1.36 -70.42 C0.32 -79.3, 1.67 -87.78, -0.09 -97.43" stroke="#1e1e1e" stroke-width="1" fill="none"></path></g></g><mask></mask><g transform="translate(10 177) rotate(0 36.13995361328125 25)"><text x="0" y="0" font-family="Virgil, Segoe UI Emoji" font-size="20px" fill="#1e1e1e" text-anchor="start" style="white-space: pre;" direction="ltr" dominant-baseline="text-before-edge">POST</text><text x="0" y="25" font-family="Virgil, Segoe UI Emoji" font-size="20px" fill="#1e1e1e" text-anchor="start" style="white-space: pre;" direction="ltr" dominant-baseline="text-before-edge">position</text></g><g transform="translate(189 147) rotate(0 33.869972229003906 25)"><text x="0" y="0" font-family="Virgil, Segoe UI Emoji" font-size="20px" fill="#1e1e1e" text-anchor="start" style="white-space: pre;" direction="ltr" dominant-baseline="text-before-edge">new </text><text x="0" y="25" font-family="Virgil, Segoe UI Emoji" font-size="20px" fill="#1e1e1e" text-anchor="start" style="white-space: pre;" direction="ltr" dominant-baseline="text-before-edge"> state</text></g><g transform="translate(457 97) rotate(0 17.029991149902344 12.5)"><text x="0" y="0" font-family="Virgil, Segoe UI Emoji" font-size="20px" fill="#1e1e1e" text-anchor="start" style="white-space: pre;" direction="ltr" dominant-baseline="text-before-edge">0..n</text></g><g transform="translate(349 160) rotate(0 55.09996032714844 25)"><text x="0" y="0" font-family="Virgil, Segoe UI Emoji" font-size="20px" fill="#1e1e1e" text-anchor="start" style="white-space: pre;" direction="ltr" dominant-baseline="text-before-edge">new state </text><text x="0" y="25" font-family="Virgil, Segoe UI Emoji" font-size="20px" fill="#1e1e1e" text-anchor="start" style="white-space: pre;" direction="ltr" dominant-baseline="text-before-edge">via sse</text></g><g transform="translate(15 279) rotate(0 55.99995422363281 25)"><text x="0" y="0" font-family="Virgil, Segoe UI Emoji" font-size="20px" fill="#1e1e1e" text-anchor="start" style="white-space: pre;" direction="ltr" dominant-baseline="text-before-edge">read state</text><text x="0" y="25" font-family="Virgil, Segoe UI Emoji" font-size="20px" fill="#1e1e1e" text-anchor="start" style="white-space: pre;" direction="ltr" dominant-baseline="text-before-edge">from db</text></g><g transform="translate(107 414) rotate(0 69.31993865966797 25)"><text x="0" y="0" font-family="Virgil, Segoe UI Emoji" font-size="20px" fill="#1e1e1e" text-anchor="start" style="white-space: pre;" direction="ltr" dominant-baseline="text-before-edge">mutate state</text><text x="0" y="25" font-family="Virgil, Segoe UI Emoji" font-size="20px" fill="#1e1e1e" text-anchor="start" style="white-space: pre;" direction="ltr" dominant-baseline="text-before-edge">action(row,col)</text></g><g transform="translate(269 317) rotate(0 67.9599380493164 25)"><text x="0" y="0" font-family="Virgil, Segoe UI Emoji" font-size="20px" fill="#1e1e1e" text-anchor="start" style="white-space: pre;" direction="ltr" dominant-baseline="text-before-edge">update state</text><text x="0" y="25" font-family="Virgil, Segoe UI Emoji" font-size="20px" fill="#1e1e1e" text-anchor="start" style="white-space: pre;" direction="ltr" dominant-baseline="text-before-edge">in db</text></g><g transform="translate(19 10) rotate(0 297.27587890625 17.5)"><text x="0" y="0" font-family="Virgil, Segoe UI Emoji" font-size="28px" fill="#1e1e1e" text-anchor="start" style="white-space: pre;" direction="ltr" dominant-baseline="text-before-edge">Multiplayer mode - Propagation of updates</text></g></svg>